<?xml version="1.0" standalone="no"?>
<!DOCTYPE svg PUBLIC "-//W3C//DTD SVG 20010904//EN"
 "http://www.w3.org/TR/2001/REC-SVG-20010904/DTD/svg10.dtd">
<svg version="1.0" xmlns="http://www.w3.org/2000/svg"
 width="1349.000000pt" height="1349.000000pt" viewBox="0 0 1349.000000 1349.000000"
 preserveAspectRatio="xMidYMid meet">
<metadata>
Created by potrace 1.14, written by Peter Selinger 2001-2017
</metadata>
<g transform="translate(0.000000,1349.000000) scale(0.100000,-0.100000)"
fill="#000000" stroke="none">
<path d="M11739 9782 c-39 -20 -62 -41 -84 -77 l-30 -48 0 -777 0 -777 30 -48
c22 -36 45 -57 84 -77 l53 -28 419 0 c365 0 419 2 420 15 0 8 1 31 1 50 0 97
0 95 -33 95 -27 0 -30 3 -27 28 2 15 8 27 13 27 26 2 55 18 60 34 6 19 52 34
60 20 3 -4 6 -66 6 -138 l1 -131 45 0 46 0 -27 21 c-14 11 -26 27 -26 35 0 18
52 19 80 2 26 -16 54 0 58 33 3 19 1 22 -9 12 -20 -20 -82 -16 -107 7 -89 83
41 212 145 144 71 -46 68 -192 -6 -237 -25 -16 -23 -16 74 -17 86 0 97 2 76
13 -73 38 -80 188 -10 240 33 24 88 25 124 1 72 -47 73 -187 2 -233 l-32 -21
83 0 c45 0 82 2 82 5 0 3 -9 18 -21 34 -45 61 -29 179 28 216 40 26 110 22
142 -9 l26 -25 0 57 c0 31 -3 59 -7 62 -4 3 -209 5 -457 5 -424 0 -451 1 -452
17 0 10 0 56 0 103 0 47 0 100 0 118 1 27 19 51 108 147 356 383 407 440 402
441 -2 1 -112 2 -243 3 l-239 1 -1 141 -1 141 436 0 c239 0 439 2 445 5 5 3 8
56 7 116 -2 143 -21 192 -95 242 l-51 35 -772 2 -773 3 -53 -28z"/>
<path d="M13389 8998 c-75 -82 -156 -172 -184 -204 -32 -36 -172 -189 -183
-201 -11 -11 -6 -13 30 -14 53 -1 350 -1 398 0 l35 1 0 255 c0 140 -3 255 -6
255 -3 0 -44 -42 -90 -92z"/>
<path d="M99 8668 c-1 -2 -2 -209 -3 -460 -1 -300 2 -458 9 -459 5 0 358 -1
783 -1 713 0 772 -2 760 -17 -12 -15 -49 -55 -135 -147 -21 -23 -76 -83 -123
-134 -47 -51 -98 -107 -115 -125 -16 -17 -54 -58 -84 -91 -30 -32 -82 -88
-115 -124 -34 -36 -113 -121 -176 -190 -63 -69 -136 -147 -162 -175 -25 -27
-61 -66 -80 -86 -18 -20 -78 -85 -134 -145 -55 -60 -123 -133 -150 -163 -55
-60 -66 -72 -215 -232 -59 -63 -118 -128 -133 -145 l-26 -32 0 -431 0 -431
1603 2 1602 3 2 458 1 457 -21 1 c-12 0 -408 1 -880 1 l-857 0 32 37 c17 20
42 47 54 61 13 14 32 35 43 48 11 13 56 63 101 112 45 49 91 99 101 112 30 34
151 169 174 193 11 11 56 61 100 110 44 50 98 110 121 135 23 25 52 57 65 71
112 125 158 176 179 199 29 31 168 185 190 210 13 15 134 150 185 206 11 12
36 39 55 60 117 130 226 250 230 254 3 3 15 18 27 33 22 28 22 33 22 428 l-1
399 -1514 0 c-833 0 -1515 -1 -1515 -2z"/>
<path d="M8919 8668 c-1 -2 -2 -810 -3 -1795 l-1 -1793 497 0 c392 0 498 3
498 13 1 6 2 347 4 757 1 410 5 754 8 766 22 77 38 126 53 154 31 60 102 126
168 156 54 24 75 28 157 28 209 2 294 -82 325 -319 3 -27 6 -389 7 -802 l0
-753 499 0 499 0 -1 943 c0 818 -4 994 -22 1077 -91 414 -437 664 -907 654
-314 -6 -519 -84 -711 -271 l-77 -74 0 628 0 628 -496 3 c-273 1 -497 1 -497
0z"/>
<path d="M12838 8163 c-23 -6 -33 -40 -17 -59 7 -8 24 -14 38 -12 20 2 27 9
29 30 3 29 -20 48 -50 41z"/>
<path d="M13091 8161 c-19 -12 -24 -110 -7 -136 18 -27 51 -24 67 6 12 22 5
107 -10 122 -14 14 -35 17 -50 8z"/>
<path d="M13353 8158 c-6 -7 -13 -21 -16 -31 -6 -16 -4 -16 21 -4 28 15 71 9
96 -13 10 -8 15 -6 20 6 11 29 6 34 -28 34 -19 0 -38 5 -41 10 -9 14 -41 12
-52 -2z"/>
<path d="M13344 8066 c-12 -31 1 -51 33 -54 25 -2 33 1 38 18 4 12 1 27 -5 35
-16 19 -59 19 -66 1z"/>
<path d="M4487 7754 c-1 -1 -36 -5 -77 -8 -514 -43 -813 -192 -970 -481 -35
-65 -74 -204 -85 -302 l-7 -63 466 0 c497 0 474 -2 467 42 -2 14 32 83 56 115
33 43 132 91 208 101 136 18 278 -8 351 -63 67 -51 97 -179 59 -258 -36 -75
-106 -113 -265 -143 -16 -3 -212 -31 -270 -39 -48 -7 -167 -23 -215 -30 -289
-42 -524 -119 -674 -222 -82 -57 -102 -75 -155 -143 -76 -99 -106 -168 -132
-300 -18 -94 -11 -287 14 -381 96 -362 424 -564 912 -563 340 1 596 90 783
271 l47 46 1 -54 c1 -59 3 -80 20 -151 l11 -48 509 0 508 0 -34 73 c-19 39
-44 115 -56 167 -21 91 -22 120 -25 750 -4 905 -4 924 -19 1020 -21 131 -23
140 -66 228 -69 143 -159 230 -315 302 -102 47 -262 92 -373 105 -30 3 -57 8
-61 10 -17 11 -601 29 -613 19z m487 -1657 c-3 -169 -7 -192 -50 -282 -72
-150 -263 -237 -445 -201 -82 17 -172 81 -209 149 -38 71 -22 181 36 243 48
50 118 78 318 129 97 24 214 59 259 77 45 19 85 30 88 26 3 -5 4 -68 3 -141z"/>
<path d="M7407 7754 c-1 -1 -38 -4 -81 -8 -291 -25 -606 -165 -823 -366 -215
-200 -361 -491 -400 -795 -10 -78 -10 -335 -1 -402 54 -371 228 -672 508 -882
91 -68 110 -80 225 -136 469 -229 1098 -192 1509 90 192 131 338 311 427 527
32 77 74 227 84 296 l6 42 -138 1 c-413 2 -806 0 -811 -6 -3 -3 -7 -16 -9 -28
-10 -73 -55 -166 -110 -228 -109 -122 -321 -151 -485 -68 -104 53 -180 186
-204 354 -3 28 -8 59 -10 70 -6 33 -5 306 2 355 37 275 138 415 326 450 234
45 427 -72 454 -274 l7 -46 41 -1 c58 0 736 0 830 0 l78 1 -6 49 c-61 503
-398 852 -931 966 -60 13 -140 27 -178 30 -62 7 -304 14 -310 9z"/>
<path d="M6065 4719 c-184 -26 -321 -162 -369 -367 -19 -84 -15 -270 8 -337
47 -137 116 -224 216 -275 71 -35 98 -41 197 -45 82 -4 159 9 223 37 50 21
134 101 164 153 27 50 56 140 56 177 0 24 -3 25 -64 25 l-65 0 -6 -41 c-10
-57 -52 -140 -88 -172 -67 -60 -172 -82 -273 -59 -161 37 -254 193 -248 416 3
145 62 273 151 329 161 102 385 45 441 -112 l17 -48 62 1 c60 2 63 3 63 26 0
74 -98 206 -187 251 -77 40 -196 56 -298 41z"/>
<path d="M30 4578 c0 -95 3 -128 13 -129 6 0 101 -1 210 -1 109 -1 196 -4 195
-9 -3 -6 -89 -101 -203 -224 -152 -163 -224 -241 -231 -248 -5 -4 -9 -62 -9
-127 -1 -99 2 -119 15 -122 8 -2 206 -4 440 -3 332 0 425 3 426 13 1 6 2 42 4
80 1 51 4 61 10 40 30 -101 111 -148 256 -148 76 0 137 17 185 50 30 22 30 22
42 -20 3 -12 27 -15 141 -15 l137 0 -7 25 c-3 14 -10 39 -13 55 -4 17 -8 134
-9 260 -1 247 -7 278 -54 321 -32 30 -76 51 -123 59 -22 4 -49 9 -60 11 -32 7
-176 6 -220 -1 -118 -18 -191 -60 -224 -128 -12 -25 -23 -58 -24 -73 l-2 -29
125 0 125 0 12 27 c22 52 138 60 170 12 35 -54 -3 -88 -112 -100 -85 -10 -186
-33 -234 -54 -50 -22 -98 -70 -107 -107 l-6 -23 -246 0 -245 0 24 28 c13 15
28 32 34 37 5 6 44 48 85 95 41 47 84 94 95 106 11 11 52 56 92 100 39 43 83
92 97 107 31 33 28 17 30 150 l2 107 -70 1 c-39 0 -227 1 -418 2 l-348 2 0
-127z m1340 -584 c0 -72 -51 -134 -110 -134 -31 0 -78 27 -85 49 -8 28 11 68
37 77 27 9 140 41 151 43 4 1 7 -15 7 -35z"/>
<path d="M2994 4701 c-2 -2 -4 -225 -4 -495 l0 -491 130 0 c81 0 130 3 131 10
1 5 1 20 2 33 0 28 9 28 33 1 40 -44 87 -60 181 -60 111 0 200 61 255 172 67
138 57 349 -22 464 -91 132 -296 156 -410 49 l-26 -24 1 170 1 170 -46 1 c-25
0 -85 1 -133 2 -49 1 -91 0 -93 -2z m430 -463 c87 -39 88 -295 1 -328 -106
-40 -177 38 -168 186 7 121 79 183 167 142z"/>
<path d="M6667 4702 c-10 -2 -17 -9 -18 -15 0 -11 0 -910 1 -952 0 -19 6 -21
58 -20 l57 0 2 234 c2 228 3 235 27 286 20 41 36 57 75 78 82 45 185 32 226
-29 18 -26 20 -52 25 -299 l5 -270 55 0 55 0 3 264 c3 293 -5 344 -56 402 -82
92 -310 83 -387 -15 l-25 -31 -1 45 c0 25 0 106 0 182 l0 136 -43 4 c-23 1
-50 2 -59 0z"/>
<path d="M9183 4700 c-16 -4 -19 -15 -18 -70 l0 -65 35 -5 c19 -3 47 -4 61 -2
24 4 25 6 25 72 l-1 68 -42 4 c-23 2 -50 1 -60 -2z"/>
<path d="M10784 4695 c-2 -5 -3 -228 -2 -495 l3 -485 55 0 55 0 3 493 2 492
-22 1 c-13 0 -38 1 -57 2 -18 1 -35 -2 -37 -8z"/>
<path d="M2610 4448 c-72 -9 -120 -30 -161 -70 l-34 -33 -40 41 c-85 88 -250
87 -355 -3 l-42 -36 3 36 c2 20 0 39 -3 43 -11 10 -249 10 -255 0 -7 -11 -10
-706 -3 -707 3 -1 65 -2 138 -3 112 -1 132 1 133 14 0 8 1 104 1 213 0 110 4
212 10 228 28 81 148 78 163 -4 3 -18 7 -126 8 -242 l2 -210 135 0 135 0 2
199 c0 110 4 217 7 237 12 72 88 102 143 55 l28 -24 2 -204 c1 -111 2 -217 3
-233 l0 -30 135 0 c113 0 135 2 136 15 0 8 1 132 1 276 0 246 -1 264 -21 310
-27 60 -45 81 -94 105 -52 27 -112 36 -177 27z"/>
<path d="M4168 4455 c-1 -1 -28 -6 -58 -9 -71 -9 -165 -53 -214 -102 -150
-152 -128 -453 43 -576 109 -78 321 -92 446 -30 117 58 184 170 190 314 10
221 -116 374 -323 394 -31 3 -62 7 -69 9 -6 2 -13 2 -15 0z m67 -217 c76 -35
92 -236 25 -308 -32 -34 -81 -40 -130 -15 -41 21 -64 95 -57 184 5 77 15 100
53 130 30 24 70 27 109 9z"/>
<path d="M5084 4449 c-60 -11 -105 -32 -148 -70 l-39 -33 5 42 c3 39 2 42 -22
43 -192 6 -240 3 -241 -11 -5 -89 -2 -685 3 -693 5 -8 51 -12 138 -12 124 -1
130 0 130 20 1 11 2 111 3 222 2 186 4 204 23 229 25 34 64 48 110 39 55 -10
61 -36 62 -264 0 -108 1 -207 1 -221 l1 -25 133 1 c72 1 134 2 137 3 3 0 5
124 5 274 l-1 274 -30 59 c-22 45 -40 66 -74 86 -52 31 -136 47 -196 37z"/>
<path d="M7564 4435 c-60 -19 -94 -39 -138 -82 -81 -79 -126 -237 -101 -351 3
-15 7 -37 10 -50 8 -45 52 -127 86 -163 19 -19 57 -46 85 -60 42 -21 63 -24
154 -24 95 0 110 3 156 27 53 28 93 68 121 121 20 40 34 87 25 88 -4 1 -30 2
-59 4 -51 2 -53 1 -63 -30 -39 -118 -231 -149 -329 -53 -37 37 -59 84 -63 136
l-3 37 260 2 c143 1 264 2 268 3 9 0 4 90 -7 142 -22 98 -91 194 -169 232 -62
31 -170 40 -233 21z m172 -116 c49 -23 85 -64 103 -118 20 -62 29 -59 -189
-59 l-200 -1 0 25 c0 33 32 93 67 125 56 52 143 63 219 28z"/>
<path d="M8310 4440 c-42 -12 -88 -39 -120 -70 -17 -17 -33 -30 -36 -30 -3 0
-5 15 -4 33 3 57 3 57 -55 57 l-55 0 2 -357 3 -358 58 0 57 -1 0 237 c0 253 3
275 53 331 62 71 184 78 240 15 9 -11 18 -20 19 -21 1 -1 4 -127 7 -281 l6
-280 57 0 57 -1 3 256 c3 255 3 257 28 293 46 69 159 99 231 61 56 -28 61 -59
62 -349 l0 -260 55 0 c43 0 56 4 61 17 3 10 5 140 4 290 -1 298 -5 318 -60
370 -58 56 -210 70 -297 28 -25 -12 -58 -37 -75 -55 l-30 -34 -20 34 c-27 46
-90 77 -165 80 -34 1 -72 -1 -86 -5z"/>
<path d="M9608 4435 c-165 -44 -261 -220 -236 -433 22 -184 149 -302 327 -302
96 0 160 22 219 75 48 43 82 104 97 172 l6 31 -59 1 -59 0 -22 -55 c-41 -98
-114 -133 -233 -110 -124 23 -187 206 -132 383 28 90 98 141 196 142 82 2 146
-39 169 -106 10 -33 11 -33 74 -33 l63 0 -10 43 c-20 93 -102 173 -194 192
-58 12 -160 12 -206 0z"/>
<path d="M10280 4436 c-66 -14 -106 -35 -142 -73 -28 -29 -58 -100 -58 -137 0
-20 5 -22 56 -21 56 0 56 0 69 39 24 70 67 94 168 94 110 0 162 -38 155 -114
-5 -61 -30 -73 -213 -99 -205 -30 -293 -128 -255 -287 36 -146 282 -188 432
-73 l46 34 6 -34 c11 -55 89 -82 159 -56 21 8 24 15 23 52 -2 38 -5 43 -27 44
-14 1 -31 5 -37 9 -7 4 -11 81 -12 239 0 127 -5 248 -10 267 -12 43 -51 83
-104 105 -49 21 -183 26 -256 11z m251 -431 c-1 -36 -6 -76 -11 -89 -33 -88
-196 -140 -290 -91 -36 19 -50 43 -50 89 0 71 66 114 205 131 62 8 125 21 132
29 12 12 16 -5 14 -69z"/>
<path d="M11176 4438 c-58 -13 -128 -54 -154 -92 -34 -50 -40 -124 -13 -180
33 -68 92 -98 264 -137 106 -23 159 -49 175 -83 14 -32 6 -80 -19 -102 -38
-34 -135 -47 -222 -29 -48 10 -107 63 -107 98 0 31 -5 33 -73 29 l-54 -4 9
-46 c14 -71 54 -122 123 -157 55 -28 65 -30 174 -30 104 0 122 3 172 26 91 43
131 101 132 190 0 113 -86 184 -263 215 -130 23 -200 63 -200 115 0 102 222
125 289 30 12 -16 21 -36 21 -45 0 -12 12 -15 60 -15 57 1 60 2 60 25 0 83
-77 166 -175 191 -38 9 -160 10 -199 1z"/>
<path d="M9165 4075 c0 -231 3 -355 10 -356 31 -4 91 -5 100 -2 7 2 10 124 10
356 l0 352 -60 3 -60 3 0 -356z"/>
</g>
</svg>
