<svg width="108" height="108" viewBox="0 0 108 108" fill="none" xmlns="http://www.w3.org/2000/svg">
<g clip-path="url(#clip0_104_225)">
<path d="M16.4531 41.1328C22.718 41.1328 28.9828 41.1328 35.4375 41.1328C35.4375 46.1953 35.4375 46.1953 33.9741 48.0674C33.0982 48.8633 33.0982 48.8633 32.6674 49.2282C32.1328 49.6925 31.6831 50.1959 31.2188 50.7305C31.073 50.8936 30.9273 51.0568 30.7771 51.2249C30.2755 51.7923 29.7769 52.3622 29.2799 52.9338C28.7051 53.5869 28.1166 54.2276 27.5282 54.8685C26.7618 55.7509 26.0426 56.6733 25.3125 57.5859C28.8626 57.5859 32.4127 57.5859 36.0703 57.5859C36.0703 57.4467 36.0703 57.3075 36.0703 57.1641C36.2095 57.1641 36.3487 57.1641 36.4922 57.1641C36.527 56.9813 36.5618 56.7986 36.5977 56.6104C37.0907 55.5011 37.9296 54.9653 39.0012 54.4351C40.4008 53.905 41.9226 53.7449 43.3938 53.5122C45.1503 53.3313 45.1503 53.3313 46.6172 52.5234C46.7011 52.104 46.7728 51.6819 46.8281 51.2578C45.9994 50.8673 45.3541 50.7895 44.4419 50.8096C44.2165 50.8134 43.9911 50.8172 43.7588 50.8211C43.5031 50.8284 43.5031 50.8284 43.2422 50.8359C43.0334 51.2536 42.8245 51.6712 42.6094 52.1016C40.7299 52.1016 38.8505 52.1016 36.9141 52.1016C36.9141 50.7183 36.9294 49.8654 37.8435 48.804C40.3562 46.4454 43.8214 46.7242 47.0217 46.7975C48.1725 46.8517 49.36 46.9674 50.4141 47.4609C50.4837 47.6698 50.5533 47.8786 50.625 48.0937C50.786 48.1503 50.9469 48.2069 51.1128 48.2651C51.88 48.6041 52.1136 49.064 52.5234 49.7812C52.7372 50.4225 52.7643 50.8662 52.771 51.5375C52.7738 51.767 52.7767 51.9965 52.7796 52.233C52.7818 52.4808 52.784 52.7287 52.7863 52.984C52.7932 53.5069 52.8002 54.0297 52.8073 54.5525C52.8173 55.3783 52.8267 56.2042 52.835 57.03C52.8433 57.8259 52.8542 58.6218 52.8654 59.4176C52.868 59.7888 52.868 59.7888 52.8708 60.1674C52.8743 60.3976 52.8778 60.6278 52.8814 60.8649C52.8847 61.1684 52.8847 61.1684 52.888 61.478C52.9477 62.038 53.1061 62.3679 53.3672 62.8594C53.3672 63.0682 53.3672 63.277 53.3672 63.4922C52.4999 63.4974 51.6326 63.5012 50.7652 63.5038C50.47 63.5048 50.1747 63.5063 49.8795 63.5081C49.4559 63.5106 49.0323 63.5117 48.6087 63.5128C48.3536 63.5139 48.0984 63.515 47.8355 63.5161C47.25 63.4922 47.25 63.4922 47.0391 63.2812C47.0305 62.8595 47.0301 62.4374 47.0391 62.0156C46.9216 62.1173 46.8041 62.219 46.6831 62.3238C46.5221 62.457 46.3612 62.5903 46.1953 62.7275C45.9604 62.9258 45.9604 62.9258 45.7207 63.128C44.4386 63.9329 43.0282 63.9906 41.5547 63.9932C41.3953 63.9983 41.236 64.0035 41.0718 64.0088C39.6651 64.0161 38.5854 63.6157 37.5271 62.6797C37.3803 62.4946 37.3803 62.4946 37.2305 62.3057C37.1282 62.1811 37.026 62.0566 36.9207 61.9283C36.7031 61.5937 36.7031 61.5937 36.7031 61.1719C36.5639 61.1719 36.4247 61.1719 36.2812 61.1719C36.2116 61.9376 36.142 62.7033 36.0703 63.4922C29.4574 63.4922 22.8445 63.4922 16.0312 63.4922C16.0312 57.7969 16.0312 57.7969 17.0991 56.3862C17.5099 56.074 17.9268 55.7696 18.3516 55.4766C18.7316 55.0901 18.7316 55.0901 19.0503 54.6855C19.7684 53.8446 20.522 53.0398 21.2783 52.2334C22.9392 50.4608 24.5564 48.6565 26.1562 46.8281C22.9542 46.8281 19.7522 46.8281 16.4531 46.8281C16.4531 44.9487 16.4531 43.0692 16.4531 41.1328Z" fill="#AFBB04"/>
<path d="M71.0859 41.1328C73.1742 41.1328 75.2625 41.1328 77.4141 41.1328C77.4837 43.6388 77.5533 46.1447 77.625 48.7266C78.1819 48.2393 78.7387 47.752 79.3125 47.25C80.2394 46.7125 81.1933 46.7579 82.2393 46.7622C82.4852 46.7571 82.4852 46.7571 82.7361 46.7519C84.1316 46.7507 85.1353 47.0144 86.2075 47.9619C88.0157 50.0145 88.0157 50.0145 88.0088 51.7104C88.0088 51.9722 88.0088 52.2339 88.0087 52.5036C88.0066 52.7882 88.0044 53.0727 88.0021 53.3573C88.0013 53.6493 88.0007 53.9413 88.0003 54.2333C87.9987 55.0004 87.9946 55.7675 87.9899 56.5345C87.9856 57.3179 87.9836 58.1012 87.9815 58.8845C87.9772 60.4204 87.969 61.9563 87.9609 63.4922C85.9423 63.4922 83.9236 63.4922 81.8437 63.4922C81.8359 62.7406 81.828 61.9891 81.8199 61.2147C81.8101 60.4873 81.7993 59.7599 81.7884 59.0324C81.7814 58.5267 81.7755 58.0209 81.7707 57.5151C81.7636 56.7883 81.7526 56.0616 81.7408 55.3348C81.7394 55.1085 81.7381 54.8821 81.7367 54.6489C81.7325 54.4379 81.7283 54.2268 81.724 54.0093C81.7205 53.731 81.7205 53.731 81.7169 53.4472C81.6147 52.8371 81.4238 52.5475 81 52.1016C80.2554 51.8534 79.6722 51.8488 78.8906 51.8906C78.1138 52.4085 77.955 52.7057 77.625 53.5781C77.5291 54.3421 77.522 55.1011 77.5171 55.8704C77.5133 56.0887 77.5095 56.3069 77.5056 56.5318C77.4942 57.226 77.487 57.9201 77.48 58.6143C77.473 59.0861 77.4657 59.558 77.4581 60.0298C77.4397 61.184 77.427 62.3379 77.4141 63.4922C75.3258 63.4922 73.2375 63.4922 71.0859 63.4922C71.0859 56.1136 71.0859 48.735 71.0859 41.1328Z" fill="#B0BC07"/>
<path d="M50.4141 47.4609C50.4837 47.6698 50.5533 47.8786 50.625 48.0937C50.8665 48.1786 50.8665 48.1786 51.1128 48.2651C51.88 48.6041 52.1136 49.064 52.5234 49.7812C52.7372 50.4224 52.7643 50.8662 52.771 51.5375C52.7738 51.767 52.7767 51.9965 52.7796 52.233C52.7829 52.6047 52.7829 52.6047 52.7863 52.984C52.7932 53.5068 52.8002 54.0297 52.8073 54.5525C52.8173 55.3783 52.8267 56.2041 52.835 57.03C52.8433 57.8259 52.8542 58.6218 52.8654 59.4176C52.868 59.7888 52.868 59.7888 52.8708 60.1674C52.8743 60.3976 52.8778 60.6277 52.8814 60.8649C52.8847 61.1684 52.8847 61.1684 52.888 61.478C52.9477 62.038 53.1061 62.3679 53.3672 62.8594C53.3672 63.0682 53.3672 63.277 53.3672 63.4922C52.4999 63.4974 51.6326 63.5012 50.7652 63.5038C50.47 63.5048 50.1747 63.5063 49.8795 63.5081C49.4559 63.5106 49.0323 63.5117 48.6087 63.5128C48.3536 63.5139 48.0984 63.515 47.8355 63.5161C47.25 63.4922 47.25 63.4922 47.0391 63.2812C47.0305 62.8595 47.0301 62.4374 47.0391 62.0156C46.9216 62.1173 46.8041 62.219 46.6831 62.3238C46.5221 62.457 46.3612 62.5903 46.1953 62.7275C45.9604 62.9258 45.9604 62.9258 45.7207 63.128C44.4386 63.9329 43.0282 63.9906 41.5547 63.9932C41.3953 63.9983 41.236 64.0035 41.0718 64.0088C39.6651 64.0161 38.5854 63.6157 37.5271 62.6797C37.3803 62.4946 37.3803 62.4946 37.2305 62.3057C37.1282 62.1811 37.026 62.0566 36.9207 61.9283C36.7031 61.5937 36.7031 61.5937 36.7031 61.1719C36.5639 61.1719 36.4247 61.1719 36.2812 61.1719C36.2116 61.9376 36.142 62.7033 36.0703 63.4922C29.4574 63.4922 22.8445 63.4922 16.0312 63.4922C16.0312 63.4226 16.0312 63.353 16.0312 63.2812C22.5745 63.2812 29.1178 63.2812 35.8594 63.2812C35.8594 61.4714 35.8594 59.6616 35.8594 57.7969C32.3093 57.7969 28.7592 57.7969 25.1016 57.7969C25.206 57.588 25.206 57.588 25.3125 57.375C28.8626 57.4446 32.4127 57.5142 36.0703 57.5859C36.0703 57.4467 36.0703 57.3075 36.0703 57.1641C36.2095 57.1641 36.3487 57.1641 36.4922 57.1641C36.527 56.9813 36.5618 56.7986 36.5977 56.6103C37.0907 55.5011 37.9296 54.9653 39.0012 54.4351C40.4008 53.905 41.9226 53.7449 43.3938 53.5122C45.1503 53.3313 45.1503 53.3313 46.6172 52.5234C46.7011 52.104 46.7728 51.6819 46.8281 51.2578C45.9994 50.8673 45.3541 50.7895 44.4419 50.8096C44.2165 50.8134 43.9911 50.8172 43.7588 50.8211C43.5031 50.8284 43.5031 50.8284 43.2422 50.8359C43.0334 51.2536 42.8245 51.6712 42.6094 52.1016C40.7299 52.1016 38.8505 52.1016 36.9141 52.1016C36.9141 50.7183 36.9294 49.8654 37.8435 48.804C40.6555 46.1644 47.0207 45.8721 50.4141 47.4609Z" fill="#B1BD0B"/>
<path d="M66.5401 47.5681C66.7176 47.6719 66.8952 47.7758 67.0781 47.8828C67.3477 48.0386 67.3477 48.0386 67.6228 48.1976C69.1703 49.1626 70.1223 50.3466 70.6641 52.1016C70.6641 52.5192 70.6641 52.9369 70.6641 53.3672C68.715 53.3672 66.7659 53.3672 64.7578 53.3672C64.6534 52.7407 64.6534 52.7407 64.5469 52.1016C64.338 52.032 64.1292 51.9623 63.9141 51.8906C63.9141 51.7514 63.9141 51.6122 63.9141 51.4687C62.374 51.3467 62.374 51.3467 60.9478 51.8247C60.0362 52.9127 60.0402 53.9978 60.0381 55.3579C60.0329 55.5337 60.0278 55.7095 60.0224 55.8906C60.0169 57.0472 60.1684 57.7377 60.9609 58.6406C62.2849 59.2045 63.1997 58.9774 64.5469 58.6406C64.6861 58.0837 64.8253 57.5269 64.9688 56.9531C66.9178 56.9531 68.8669 56.9531 70.875 56.9531C70.5803 59.0162 69.8123 60.7914 68.1476 62.1326C65.7621 63.839 63.4036 64.181 60.5391 63.9141C59.7874 63.7823 59.1311 63.5768 58.4297 63.2812C58.2888 63.2396 58.148 63.198 58.0029 63.1552C56.4218 62.5834 55.4219 60.8978 54.6328 59.4844C53.5968 57.2119 53.3857 54.5438 54.2184 52.1724C55.0751 50.0982 56.2833 48.5384 58.377 47.5928C58.6744 47.4749 58.9733 47.3606 59.2734 47.25C59.4244 47.1752 59.5753 47.1004 59.7307 47.0234C61.8278 46.3379 64.5964 46.5948 66.5401 47.5681Z" fill="#B0BB07"/>
<path d="M89.585 34.0933C89.7856 34.092 89.9863 34.0907 90.193 34.0894C90.4092 34.0913 90.6254 34.0932 90.8482 34.0952C91.0705 34.0951 91.2929 34.095 91.5219 34.0949C91.9922 34.0954 92.4624 34.0975 92.9326 34.101C93.6535 34.1059 94.3741 34.1053 95.0949 34.1039C95.5514 34.1051 96.0079 34.1066 96.4644 34.1084C96.6806 34.1082 96.8968 34.108 97.1196 34.1078C97.4205 34.1109 97.4205 34.1109 97.7275 34.1139C97.9041 34.1149 98.0807 34.1159 98.2626 34.1169C98.7188 34.1719 98.7188 34.1719 99.3516 34.5937C99.3516 35.2202 99.3516 35.8467 99.3516 36.4922C97.6114 36.4922 95.8711 36.4922 94.0782 36.4922C94.0782 37.1187 94.0782 37.7452 94.0782 38.3906C94.9831 38.3906 95.888 38.3906 96.8203 38.3906C96.2792 39.473 95.4874 40.0856 94.5915 40.8708C93.8802 41.6954 93.8802 41.6954 93.8672 43.6641C95.6771 43.6641 97.4869 43.6641 99.3516 43.6641C99.0732 43.8033 98.7947 43.9425 98.5078 44.0859C98.299 44.2252 98.0902 44.3644 97.875 44.5078C97.8054 44.299 97.7358 44.0902 97.6641 43.875C97.4422 43.949 97.2203 44.0229 96.9917 44.0991C96.201 44.2936 95.8941 44.2662 95.1328 44.0859C94.558 44.1655 94.558 44.1655 94.0782 44.2969C94.0782 44.7145 94.0782 45.1322 94.0782 45.5625C93.1773 45.5869 92.2766 45.602 91.3755 45.6152C91.1192 45.6223 90.863 45.6294 90.5989 45.6367C90.3535 45.6394 90.1081 45.6421 89.8553 45.6449C89.6288 45.6493 89.4024 45.6537 89.1691 45.6583C88.5938 45.5625 88.5938 45.5625 88.2465 45.1969C87.9208 44.6514 87.8809 44.3531 87.8791 43.7229C87.8771 43.5265 87.8751 43.3302 87.873 43.1278C87.8743 42.9173 87.8756 42.7068 87.8769 42.4899C87.8763 42.2725 87.8757 42.0552 87.8751 41.8312C87.8747 41.3722 87.8758 40.9131 87.8785 40.4541C87.8819 39.7504 87.8785 39.0469 87.8745 38.3432C87.8749 37.8973 87.8757 37.4514 87.8769 37.0055C87.8756 36.7946 87.8744 36.5836 87.873 36.3663C87.875 36.1706 87.877 35.9749 87.8791 35.7732C87.8796 35.601 87.8801 35.4289 87.8806 35.2515C88.0599 34.2545 88.6558 34.0926 89.585 34.0933Z" fill="#AFBB05"/>
<path d="M54.8437 65.6016C55.6822 66.0363 56.2317 66.495 56.7422 67.2891C56.8118 66.8018 56.8814 66.3145 56.9531 65.8125C57.3012 65.8125 57.6492 65.8125 58.0078 65.8125C58.1122 66.6478 58.1122 66.6478 58.2187 67.5C58.358 67.4304 58.4972 67.3608 58.6406 67.2891C59.4622 67.1795 59.7952 67.2073 60.4715 67.7052C61.13 68.5644 61.084 69.1545 61.0269 70.2026C61.0221 70.3689 61.0173 70.5352 61.0124 70.7065C61.0001 71.1144 60.9812 71.5221 60.9609 71.9297C60.6825 71.9297 60.4041 71.9297 60.1172 71.9297C60.1044 71.6885 60.0916 71.4473 60.0785 71.1988C60.0607 70.8843 60.0428 70.5698 60.0249 70.2554C60.0166 70.0962 60.0083 69.937 59.9998 69.7729C60.0243 68.9936 60.0243 68.9936 59.6953 68.3437C59.0625 68.3086 59.0625 68.3086 58.4297 68.3437C57.9953 68.7781 58.1314 69.6552 58.1001 70.2554C58.0864 70.4954 58.0864 70.4954 58.0725 70.7403C58.0501 71.1367 58.0288 71.5332 58.0078 71.9297C57.6598 71.9297 57.3117 71.9297 56.9531 71.9297C56.8487 71.4076 56.8487 71.4076 56.7422 70.875C56.0693 71.0374 56.0693 71.0374 55.6611 71.6265C54.9299 72.2464 54.5676 72.2869 53.6374 72.228C52.8039 72.0767 52.3561 71.8245 51.6797 71.2969C50.9897 70.184 50.7925 69.005 51.0469 67.7109C51.9235 66.0542 52.9697 65.3389 54.8437 65.6016Z" fill="#FCFCF6"/>
<path d="M16.2422 65.8125C17.9128 65.8125 19.5834 65.8125 21.3047 65.8125C21.3047 67.2891 21.3047 67.2891 20.8507 67.9186C20.6568 68.1111 20.4629 68.3036 20.2632 68.502C19.4611 69.2708 19.4611 69.2708 18.9844 70.2422C19.3932 70.2238 19.8019 70.201 20.2104 70.1763C20.438 70.164 20.6656 70.1518 20.9001 70.1392C21.5887 70.0184 21.6906 69.8861 22.1484 69.3984C22.6717 69.2444 22.6717 69.2444 23.2427 69.1479C23.4327 69.1145 23.6228 69.0811 23.8186 69.0466C23.9636 69.0235 24.1085 69.0004 24.2578 68.9766C24.2578 68.8373 24.2578 68.6981 24.2578 68.5547C23.9794 68.4851 23.7009 68.4155 23.4141 68.3438C23.4141 68.483 23.4141 68.6222 23.4141 68.7656C22.8572 68.7656 22.3003 68.7656 21.7266 68.7656C21.802 68.2187 21.8873 67.9702 22.2902 67.5824C22.9095 67.2125 23.3288 67.1977 24.0469 67.1968C24.3732 67.1907 24.3732 67.1907 24.7061 67.1844C25.3125 67.2891 25.3125 67.2891 25.8102 67.5948C26.3316 68.4054 26.2472 69.1426 26.209 70.084C26.2052 70.2613 26.2014 70.4386 26.1974 70.6212C26.1875 71.0575 26.1724 71.4936 26.1562 71.9297C25.4971 71.9419 24.838 71.9494 24.1787 71.9561C23.9911 71.9596 23.8035 71.9631 23.6102 71.9668C23.4307 71.9681 23.2512 71.9695 23.0663 71.9709C22.8178 71.9742 22.8178 71.9742 22.5642 71.9776C22.1484 71.9297 22.1484 71.9297 21.7266 71.5078C21.657 71.647 21.5873 71.7863 21.5156 71.9297C19.7058 71.9297 17.8959 71.9297 16.0312 71.9297C16.0312 70.2422 16.0312 70.2422 16.3246 69.7915C16.454 69.6835 16.5834 69.5756 16.7168 69.4644C16.8508 69.3458 16.9849 69.2272 17.123 69.1051C17.25 68.9931 17.377 68.881 17.5078 68.7656C17.7953 68.4192 18.0797 68.0698 18.3516 67.7109C17.6555 67.6413 16.9594 67.5717 16.2422 67.5C16.2422 66.9431 16.2422 66.3863 16.2422 65.8125Z" fill="#B1BD0D"/>
<path d="M76.7812 67.2891C77.0684 67.4918 77.3504 67.7023 77.625 67.9219C78.1613 68.0274 78.1613 68.0274 78.6797 67.9219C78.8167 67.7653 78.8167 67.7653 78.9565 67.6055C79.4733 67.1461 79.9214 67.231 80.5913 67.2462C81 67.2891 81 67.2891 81.6328 67.5C81.969 68.1725 81.8652 68.8983 81.8569 69.6357C81.856 69.7948 81.855 69.9539 81.854 70.1178C81.8515 70.5108 81.8477 70.9038 81.8437 71.2969C82.0525 71.2969 82.2614 71.2969 82.4765 71.2969C82.4765 71.5057 82.4765 71.7145 82.4765 71.9297C81.8612 71.9411 81.2462 71.9494 80.6308 71.9561C80.4568 71.9596 80.2828 71.9631 80.1035 71.9668C79.9349 71.9681 79.7663 71.9695 79.5926 71.9709C79.438 71.9731 79.2833 71.9753 79.124 71.9776C78.6177 71.923 78.2865 71.7353 77.8359 71.5078C77.4197 71.6895 77.4197 71.6895 76.9922 71.9297C76.4483 71.9709 76.4483 71.9709 75.8847 71.9561C75.6966 71.9522 75.5084 71.9484 75.3145 71.9445C75.1721 71.9396 75.0296 71.9347 74.8828 71.9297C74.1291 70.7992 73.8853 70.1269 74.039 68.7656C74.6439 67.4406 75.3566 67.1641 76.7812 67.2891Z" fill="#F9FAEE"/>
<path d="M29.6499 67.2759C29.8892 67.2802 30.1285 67.2846 30.375 67.2891C30.375 67.4283 30.375 67.5675 30.375 67.7109C30.5534 67.6413 30.7317 67.5717 30.9155 67.5C31.849 67.2285 32.6626 67.0998 33.5803 67.4819C34.2108 68.2107 34.0489 69.0382 34.0137 69.9653C34.0099 70.1536 34.0061 70.3419 34.0021 70.5359C33.9922 71.0008 33.9783 71.4651 33.9609 71.9297C33.4041 71.9297 32.8472 71.9297 32.2734 71.9297C32.2038 70.9552 32.1342 69.9806 32.0625 68.9766C31.8537 68.9766 31.6448 68.9766 31.4297 68.9766C31.3601 69.9511 31.2905 70.9256 31.2188 71.9297C30.5923 71.9297 29.9658 71.9297 29.3203 71.9297C29.3203 70.8856 29.3203 69.8414 29.3203 68.7656C29.0419 68.7656 28.7634 68.7656 28.4766 68.7656C28.4766 69.8098 28.4766 70.8539 28.4766 71.9297C27.8501 71.9297 27.2236 71.9297 26.5781 71.9297C26.5781 70.4679 26.5781 69.0061 26.5781 67.5C27.2742 67.5 27.9703 67.5 28.6875 67.5C28.8984 67.2891 28.8984 67.2891 29.6499 67.2759Z" fill="#B6C11A"/>
<path d="M63.9141 67.2891C64.5292 67.6791 65.0594 68.1033 65.3906 68.7656C65.4602 68.348 65.5298 67.9303 65.6016 67.5C65.88 67.5 66.1584 67.5 66.4453 67.5C66.4453 67.6392 66.4453 67.7784 66.4453 67.9219C66.5584 67.8175 66.6715 67.713 66.7881 67.6055C67.4143 67.21 67.8276 67.2395 68.5547 67.2891C68.5547 67.4283 68.5547 67.5675 68.5547 67.7109C69.2488 67.631 69.2488 67.631 69.8203 67.2891C71.0524 67.2108 71.0524 67.2108 71.5078 67.2891C71.9512 67.9542 71.981 68.1035 71.9709 68.8604C71.9695 69.0392 71.9682 69.2179 71.9668 69.4021C71.9632 69.588 71.9597 69.7738 71.9561 69.9653C71.9542 70.1536 71.9522 70.3419 71.9503 70.5359C71.9453 71.0006 71.9384 71.4651 71.9297 71.9297C71.7209 71.9297 71.512 71.9297 71.2969 71.9297C71.2273 70.7463 71.1577 69.563 71.0859 68.3437C70.5291 68.4134 69.9722 68.483 69.3984 68.5547C69.3288 69.6684 69.2592 70.7822 69.1875 71.9297C68.9787 71.9297 68.7698 71.9297 68.5547 71.9297C68.4851 70.7463 68.4155 69.563 68.3438 68.3437C67.9261 68.3437 67.5084 68.3437 67.0781 68.3437C66.6438 68.7781 66.7798 69.6552 66.7485 70.2554C66.7394 70.4154 66.7303 70.5754 66.7209 70.7403C66.6985 71.1367 66.6773 71.5332 66.6562 71.9297C66.3082 71.9297 65.9602 71.9297 65.6016 71.9297C65.6016 71.3032 65.6016 70.6767 65.6016 70.0312C64.4878 70.0312 63.3741 70.0312 62.2266 70.0312C62.3658 70.3793 62.505 70.7273 62.6484 71.0859C63.3691 71.1387 63.3691 71.1387 64.125 71.0859C64.2642 70.8771 64.4034 70.6683 64.5469 70.4531C64.8253 70.4531 65.1037 70.4531 65.3906 70.4531C65.127 71.2237 65.0382 71.4615 64.3359 71.9297C63.6157 72.0547 62.9466 72.0581 62.2266 71.9297C61.423 71.2218 61.3177 70.5196 61.251 69.4907C61.2743 68.8795 61.2974 68.4801 61.6234 67.9598C62.3379 67.3017 62.9775 67.0939 63.9141 67.2891Z" fill="#B5C018"/>
<path d="M34.5938 66.0234C35.081 66.0234 35.5683 66.0234 36.0703 66.0234C36.0703 66.6499 36.0703 67.2764 36.0703 67.9219C36.2095 67.9219 36.3487 67.9219 36.4922 67.9219C36.5618 67.713 36.6314 67.5042 36.7031 67.2891C37.5743 67.2037 38.0451 67.206 38.7993 67.6714C39.434 68.6522 39.3949 69.5264 39.2344 70.6641C38.9449 71.3221 38.8168 71.6111 38.1797 71.9297C37.571 71.9449 36.9688 71.9492 36.3604 71.9429C35.7774 71.9385 35.1944 71.9342 34.5938 71.9297C34.5938 69.9806 34.5938 68.0316 34.5938 66.0234Z" fill="#B1BC0A"/>
<path d="M24.0469 67.1968C24.3732 67.1907 24.3732 67.1907 24.7061 67.1844C25.3125 67.2891 25.3125 67.2891 25.8102 67.5948C26.3316 68.4054 26.2472 69.1426 26.209 70.084C26.2052 70.2613 26.2014 70.4386 26.1974 70.6212C26.1875 71.0575 26.1724 71.4936 26.1562 71.9297C25.4971 71.9419 24.838 71.9494 24.1787 71.9561C23.9911 71.9596 23.8035 71.9631 23.6102 71.9668C23.4307 71.9681 23.2512 71.9695 23.0663 71.9709C22.8178 71.9742 22.8178 71.9742 22.5642 71.9776C22.1484 71.9297 22.1484 71.9297 21.7266 71.5078C21.657 71.647 21.5873 71.7863 21.5156 71.9297C19.7058 71.9297 17.8959 71.9297 16.0312 71.9297C16.0312 71.3728 16.0312 70.8159 16.0312 70.2422C16.1009 70.2422 16.1705 70.2422 16.2422 70.2422C16.2422 70.7295 16.2422 71.2167 16.2422 71.7188C17.9128 71.7188 19.5834 71.7188 21.3047 71.7188C21.3047 71.3011 21.3047 70.8834 21.3047 70.4531C20.3998 70.4531 19.4948 70.4531 18.5625 70.4531C18.6321 70.2443 18.7017 70.0355 18.7734 69.8203C18.843 69.9595 18.9127 70.0988 18.9844 70.2422C19.3932 70.2238 19.8019 70.201 20.2104 70.1763C20.438 70.164 20.6656 70.1518 20.9001 70.1392C21.5887 70.0184 21.6906 69.8861 22.1484 69.3984C22.6717 69.2444 22.6717 69.2444 23.2427 69.1479C23.4327 69.1145 23.6228 69.0811 23.8186 69.0466C23.9636 69.0235 24.1085 69.0004 24.2578 68.9766C24.2578 68.8373 24.2578 68.6981 24.2578 68.5547C23.9794 68.4851 23.7009 68.4155 23.4141 68.3438C23.4141 68.483 23.4141 68.6222 23.4141 68.7656C22.8572 68.7656 22.3003 68.7656 21.7266 68.7656C21.802 68.2187 21.8873 67.9702 22.2902 67.5824C22.9095 67.2125 23.3288 67.1977 24.0469 67.1968Z" fill="#B7C21E"/>
<path d="M82.6875 65.8125C83.0355 65.8125 83.3836 65.8125 83.7422 65.8125C83.7422 66.5782 83.7422 67.3439 83.7422 68.1328C83.9206 67.9936 84.0989 67.8544 84.2827 67.7109C85.1208 67.2233 85.531 67.1504 86.4844 67.2891C87.104 67.6714 87.104 67.6714 87.5391 68.1328C87.5391 68.3416 87.5391 68.5505 87.5391 68.7656C87.191 68.7656 86.843 68.7656 86.4844 68.7656C86.4148 68.6264 86.3452 68.4872 86.2734 68.3438C85.6344 68.205 85.6344 68.205 85.0078 68.1328C85.0078 68.4809 85.0078 68.8289 85.0078 69.1875C85.2688 69.218 85.5299 69.2484 85.7988 69.2798C87.0754 69.4425 87.0754 69.4425 87.5391 69.6094C87.8408 70.2129 87.8316 70.6303 87.75 71.2969C87.1084 71.9384 86.4833 71.974 85.6143 71.9956C84.8352 71.9921 84.6269 71.957 83.9531 71.5078C83.8835 71.647 83.8139 71.7863 83.7422 71.9297C83.3941 71.9297 83.0461 71.9297 82.6875 71.9297C82.6875 69.911 82.6875 67.8923 82.6875 65.8125Z" fill="#F7F8E7"/>
<path d="M43.0312 67.2891C43.6772 67.8032 43.6772 67.8032 44.0859 68.3438C44.1555 68.4134 44.2251 68.483 44.2968 68.5547C44.501 70.5794 44.501 70.5794 43.9145 71.4287C42.8676 72.0868 41.6986 72.1091 40.5 71.9297C39.8393 71.3613 39.7025 70.9496 39.5647 70.1005C39.496 69.0617 39.524 68.5211 40.1572 67.6714C41.0355 67.1018 42.0278 67.0733 43.0312 67.2891Z" fill="#B4BF14"/>
<path d="M48.303 67.1992C48.7266 67.2891 48.7266 67.2891 49.0949 67.5931C49.4964 68.4123 49.4263 69.1855 49.3989 70.084C49.3946 70.3499 49.3946 70.3499 49.3903 70.6212C49.3828 71.0574 49.3715 71.4936 49.3594 71.9297C48.8025 71.9297 48.2456 71.9297 47.6719 71.9297C47.6023 70.9552 47.5327 69.9806 47.4609 68.9766C47.1825 68.9766 46.9041 68.9766 46.6172 68.9766C46.5476 69.9511 46.478 70.9256 46.4062 71.9297C45.8494 71.9297 45.2925 71.9297 44.7188 71.9297C44.7188 70.4679 44.7188 69.0061 44.7188 67.5C45.4148 67.5 46.1109 67.5 46.8281 67.5C47.2224 67.1057 47.7768 67.2274 48.303 67.1992Z" fill="#B4BF14"/>
<path d="M46.8281 56.3203C46.9418 57.7138 46.8213 58.5561 45.9843 59.6953C45.3477 60.1029 44.8228 60.185 44.0727 60.1963C43.8919 60.2023 43.711 60.2083 43.5247 60.2144C43.0312 60.1172 43.0312 60.1172 42.6546 59.7373C42.2823 59.0633 42.3159 58.5526 42.3984 57.7969C42.9115 57.0538 43.6562 56.9322 44.4946 56.7026C44.7531 56.63 45.0117 56.5574 45.2782 56.4826C45.9843 56.3203 45.9843 56.3203 46.8281 56.3203Z" fill="#F9FAEC"/>
<path d="M54.8438 65.6016C55.5166 65.9686 55.9927 66.3287 56.5313 66.8672C56.5313 67.1456 56.5313 67.4241 56.5313 67.7109C56.2528 67.7109 55.9744 67.7109 55.6875 67.7109C55.6092 67.5369 55.5309 67.3629 55.4502 67.1836C55.3197 67.0096 55.1892 66.8356 55.0547 66.6563C54.3447 66.5584 53.6579 66.5961 52.9453 66.6563C52.2488 68.0204 52.0556 69.192 52.5103 70.6773C53.1159 71.2462 53.5824 71.1956 54.3889 71.1848C54.9394 71.0651 55.132 70.8916 55.4766 70.4531C55.6273 70.0095 55.6273 70.0095 55.6875 69.6094C55.966 69.6094 56.2444 69.6094 56.5313 69.6094C56.4523 70.7409 56.1103 71.1907 55.2657 71.9297C55.196 71.9993 55.1264 72.0689 55.0547 72.1406C54.0995 72.2657 53.2102 72.2467 52.3389 71.811C51.4034 71.0814 51.1459 70.4393 50.9662 69.3152C50.8762 68.0414 51.1641 67.3353 51.9739 66.3596C52.8619 65.4781 53.6552 65.4312 54.8438 65.6016Z" fill="#BAC427"/>
<path d="M81 67.2891C81.6328 67.5 81.6328 67.5 81.8438 67.9219C81.8589 68.4951 81.8634 69.0628 81.8569 69.6357C81.856 69.7948 81.855 69.9539 81.8541 70.1178C81.8516 70.5108 81.8478 70.9038 81.8438 71.2969C82.0526 71.2969 82.2614 71.2969 82.4766 71.2969C82.4766 71.5057 82.4766 71.7145 82.4766 71.9297C81.8524 71.9467 81.2288 71.9593 80.6045 71.9692C80.4269 71.9745 80.2494 71.9798 80.0664 71.9853C79.8965 71.9873 79.7266 71.9894 79.5515 71.9915C79.3162 71.9965 79.3162 71.9965 79.0761 72.0015C78.9453 71.9778 78.8145 71.9541 78.6797 71.9297C78.1912 71.197 78.1321 70.8931 78.2578 70.0313C79.0398 69.347 80.0084 69.1951 81 68.9766C81 68.7677 81 68.5589 81 68.3438C80.2794 68.291 80.2794 68.291 79.5235 68.3438C79.3146 68.657 79.3146 68.657 79.1016 68.9766C78.8927 68.9766 78.6839 68.9766 78.4688 68.9766C78.5416 68.4372 78.6271 68.0115 78.9038 67.5396C79.5586 67.1382 80.2515 67.2106 81 67.2891Z" fill="#B4BF15"/>
<path d="M63.9141 67.2891C64.626 67.7241 64.626 67.7241 65.1797 68.3437C65.1797 68.831 65.1797 69.3183 65.1797 69.8203C64.1355 69.8203 63.0914 69.8203 62.0156 69.8203C62.3221 70.7873 62.3221 70.7873 62.6484 71.0859C63.3779 71.1563 63.3779 71.1563 64.125 71.0859C64.2642 70.8771 64.4034 70.6683 64.5469 70.4531C64.8253 70.4531 65.1037 70.4531 65.3906 70.4531C65.127 71.2237 65.0382 71.4615 64.3359 71.9297C63.6157 72.0547 62.9466 72.0581 62.2266 71.9297C61.423 71.2218 61.3177 70.5196 61.251 69.4907C61.2743 68.8795 61.2974 68.4801 61.6234 67.9598C62.3379 67.3017 62.9775 67.0939 63.9141 67.2891Z" fill="#AFBA03"/>
<path d="M57.1641 65.8125C57.4425 65.8125 57.7209 65.8125 58.0078 65.8125C58.0774 66.3694 58.147 66.9262 58.2188 67.5C58.358 67.4304 58.4972 67.3608 58.6406 67.2891C59.4622 67.1795 59.7952 67.2073 60.4715 67.7052C61.1301 68.5644 61.084 69.1545 61.0269 70.2026C61.0221 70.3689 61.0173 70.5352 61.0124 70.7065C61.0001 71.1144 60.9812 71.5221 60.9609 71.9297C60.6825 71.9297 60.4041 71.9297 60.1172 71.9297C60.1044 71.6885 60.0916 71.4473 60.0785 71.1988C60.0607 70.8843 60.0428 70.5699 60.0249 70.2554C60.0166 70.0962 60.0083 69.937 59.9998 69.7729C60.0243 68.9936 60.0243 68.9936 59.6953 68.3438C59.0625 68.3086 59.0625 68.3086 58.4297 68.3438C57.9953 68.7781 58.1314 69.6552 58.1001 70.2554C58.091 70.4154 58.0819 70.5754 58.0725 70.7403C58.0501 71.1367 58.0288 71.5332 58.0078 71.9297C57.7294 71.9297 57.4509 71.9297 57.1641 71.9297C57.1641 69.911 57.1641 67.8923 57.1641 65.8125Z" fill="#BFC836"/>
<path d="M86.4844 67.2891C87.104 67.6714 87.104 67.6714 87.539 68.1328C87.539 68.3416 87.539 68.5505 87.539 68.7656C87.191 68.7656 86.8429 68.7656 86.4844 68.7656C86.4147 68.6264 86.3451 68.4872 86.2734 68.3437C85.6344 68.205 85.6344 68.205 85.0078 68.1328C85.0078 68.4809 85.0078 68.8289 85.0078 69.1875C85.2688 69.2179 85.5299 69.2484 85.7988 69.2798C87.0754 69.4425 87.0754 69.4425 87.539 69.6094C87.8408 70.2129 87.8316 70.6303 87.75 71.2969C86.9815 72.0654 86.0771 72.0045 85.0515 72.0137C84.8978 71.986 84.7442 71.9583 84.5859 71.9297C84.164 71.2969 84.164 71.2969 84.164 70.6641C84.3033 70.6641 84.4425 70.6641 84.5859 70.6641C84.6555 70.8033 84.7251 70.9425 84.7969 71.0859C85.4233 71.0859 86.0498 71.0859 86.6953 71.0859C86.7649 70.8075 86.8345 70.5291 86.9062 70.2422C86.68 70.2117 86.4538 70.1813 86.2207 70.1499C84.9688 69.9621 84.9688 69.9621 84.5859 69.8203C84.0979 69.0883 84.0564 68.7828 84.164 67.9219C84.8109 67.1456 85.5257 67.1713 86.4844 67.2891Z" fill="#BFC836"/>
<path d="M76.7812 67.2891C77.3108 67.5897 77.617 67.8929 78.0468 68.3437C78.0468 68.5526 78.0468 68.7614 78.0468 68.9766C77.7684 68.9766 77.49 68.9766 77.2031 68.9766C77.0639 68.7677 76.9247 68.5589 76.7812 68.3437C76.1263 68.2766 75.7229 68.345 75.0937 68.5547C75.0241 69.3204 74.9545 70.0861 74.8828 70.875C75.5093 70.9446 76.1358 71.0142 76.7812 71.0859C76.9204 70.8075 77.0597 70.5291 77.2031 70.2422C77.4815 70.2422 77.76 70.2422 78.0468 70.2422C77.9711 70.7727 77.8227 71.1065 77.5327 71.5605C76.6992 72.1297 75.8627 71.997 74.8828 71.9297C74.1291 70.7992 73.8853 70.1269 74.039 68.7656C74.6364 67.457 75.3634 67.1208 76.7812 67.2891Z" fill="#BDC732"/>
<path d="M54.8438 65.6016C55.5166 65.9686 55.9928 66.3287 56.5313 66.8672C56.5313 67.1456 56.5313 67.4241 56.5313 67.7109C56.2529 67.7109 55.9744 67.7109 55.6875 67.7109C55.6092 67.5369 55.5309 67.3629 55.4502 67.1836C55.3197 67.0096 55.1892 66.8355 55.0547 66.6562C54.3447 66.5584 53.6579 66.5961 52.9454 66.6562C52.5191 67.5828 52.2263 68.3761 52.1016 69.3984C52.032 69.3984 51.9624 69.3984 51.8907 69.3984C51.8211 68.772 51.7514 68.1455 51.6797 67.5C51.5405 68.2657 51.4013 69.0314 51.2579 69.8203C51.1882 69.8203 51.1186 69.8203 51.0469 69.8203C50.9146 68.6242 50.9015 67.7539 51.6402 66.7617C52.5826 65.6262 53.412 65.3963 54.8438 65.6016Z" fill="#C2CB42"/>
<path d="M63.9141 67.2891C64.3096 67.5659 64.3096 67.5659 64.5469 67.9219C64.5469 68.4141 64.5469 68.9062 64.5469 69.3984C64.3538 69.396 64.1608 69.3935 63.9619 69.391C63.7112 69.3891 63.4604 69.3872 63.2021 69.3853C62.8277 69.3816 62.8277 69.3816 62.4457 69.3778C61.8217 69.3532 61.8217 69.3532 61.3828 69.6094C61.3037 69.0425 61.3037 69.0425 61.3828 68.3437C62.167 67.4849 62.7402 67.0804 63.9141 67.2891Z" fill="#C2CB42"/>
<path d="M70.6641 52.9453C71.0859 53.3672 71.0859 53.3672 71.1367 53.8023C71.1353 54.0707 71.1353 54.0707 71.1338 54.3445C71.1338 54.5472 71.1338 54.7499 71.1337 54.9587C71.1316 55.178 71.1294 55.3973 71.1271 55.6232C71.1265 55.8474 71.1259 56.0715 71.1253 56.3024C71.123 57.0203 71.1177 57.7382 71.1123 58.4561C71.1102 58.9419 71.1083 59.4278 71.1065 59.9137C71.1019 61.1065 71.0948 62.2994 71.0859 63.4922C71.0163 63.4922 70.9467 63.4922 70.875 63.4922C70.7706 61.4039 70.7706 61.4039 70.6641 59.2734C70.5248 59.343 70.3856 59.4127 70.2422 59.4844C70.451 58.6491 70.6598 57.8137 70.875 56.9531C68.9259 56.9531 66.9769 56.9531 64.9688 56.9531C64.9688 56.8835 64.9688 56.8139 64.9688 56.7422C66.9178 56.7422 68.8669 56.7422 70.875 56.7422C70.875 55.698 70.875 54.6539 70.875 53.5781C68.8563 53.5781 66.8377 53.5781 64.7578 53.5781C64.7578 53.5085 64.7578 53.4389 64.7578 53.3672C66.7069 53.3672 68.6559 53.3672 70.6641 53.3672C70.6641 53.228 70.6641 53.0888 70.6641 52.9453Z" fill="#F2F4D6"/>
<path d="M82.6875 65.8125C82.9659 65.8125 83.2444 65.8125 83.5312 65.8125C83.5312 67.8312 83.5312 69.8498 83.5312 71.9297C83.2528 71.9297 82.9744 71.9297 82.6875 71.9297C82.6875 69.911 82.6875 67.8923 82.6875 65.8125Z" fill="#BCC52E"/>
<path d="M99.1406 38.6016C99.2798 38.6016 99.4191 38.6016 99.5625 38.6016C99.5625 39.6457 99.5625 40.6898 99.5625 41.7656C98.6576 41.7656 97.7527 41.7656 96.8203 41.7656C97.2055 40.8027 97.3864 40.4963 98.0991 39.8276C98.7022 39.2757 98.7022 39.2757 99.1406 38.6016Z" fill="#AFBB05"/>
<path d="M34.1719 65.8125C34.868 65.8125 35.5641 65.8125 36.2812 65.8125C36.3509 66.5086 36.4205 67.2047 36.4922 67.9219C36.353 67.9219 36.2137 67.9219 36.0703 67.9219C36.0703 67.2954 36.0703 66.6689 36.0703 66.0234C35.583 66.0234 35.0958 66.0234 34.5938 66.0234C34.5938 67.9725 34.5938 69.9216 34.5938 71.9297C34.0863 72.1834 33.7606 72.1619 33.1963 72.1538C32.9377 72.151 32.9377 72.151 32.6739 72.148C32.5417 72.1456 32.4096 72.1431 32.2734 72.1406C32.2734 72.071 32.2734 72.0014 32.2734 71.9297C32.8303 71.9297 33.3872 71.9297 33.9609 71.9297C33.9585 71.7002 33.956 71.4707 33.9535 71.2343C33.9402 69.4124 33.9881 67.6277 34.1719 65.8125Z" fill="#E6EAB2"/>
<path d="M16.6641 46.8281C19.7965 46.8281 22.9289 46.8281 26.1562 46.8281C26.017 47.1066 25.8778 47.385 25.7344 47.6719C25.63 47.463 25.63 47.463 25.5234 47.25C22.5998 47.25 19.6762 47.25 16.6641 47.25C16.6641 47.1108 16.6641 46.9716 16.6641 46.8281Z" fill="#ECEFC5"/>
<path d="M74.4609 68.7656C74.5306 68.7656 74.6002 68.7656 74.6719 68.7656C74.7415 69.4617 74.8111 70.1578 74.8828 70.875C75.5093 70.9446 76.1358 71.0142 76.7813 71.0859C76.9205 70.8075 77.0597 70.5291 77.2031 70.2422C77.4816 70.2422 77.76 70.2422 78.0469 70.2422C77.9711 70.7727 77.8228 71.1065 77.5327 71.5605C76.8058 72.057 76.2393 72.0314 75.3764 72.0417C74.8828 71.9297 74.8828 71.9297 74.5046 71.5696C74.2036 70.9978 74.1783 70.6342 74.1973 69.9917C74.2005 69.806 74.2038 69.6203 74.2072 69.4289C74.25 68.9766 74.25 68.9766 74.4609 68.7656Z" fill="#B6C11A"/>
<path d="M72.7734 67.2891C73.0519 67.2891 73.3303 67.2891 73.6172 67.2891C73.6172 68.8205 73.6172 70.3519 73.6172 71.9297C73.3388 71.9297 73.0603 71.9297 72.7734 71.9297C72.7734 70.3983 72.7734 68.8669 72.7734 67.2891Z" fill="#BFC838"/>
<path d="M65.6016 67.5C65.6712 67.5 65.7408 67.5 65.8125 67.5C65.8125 68.8922 65.8125 70.2844 65.8125 71.7188C65.9517 71.7188 66.0909 71.7188 66.2344 71.7188C66.2344 70.8138 66.2344 69.9089 66.2344 68.9766C66.3736 68.907 66.5128 68.8373 66.6562 68.7656C66.6562 69.8098 66.6562 70.8539 66.6562 71.9297C66.3082 71.9297 65.9602 71.9297 65.6016 71.9297C65.6016 71.3032 65.6016 70.6767 65.6016 70.0312C64.4878 70.0312 63.3741 70.0312 62.2266 70.0312C62.157 70.2401 62.0873 70.4489 62.0156 70.6641C62.0156 70.3856 62.0156 70.1072 62.0156 69.8203C63.0598 69.8203 64.1039 69.8203 65.1797 69.8203C65.1797 69.4723 65.1797 69.1242 65.1797 68.7656C65.2493 68.7656 65.3189 68.7656 65.3906 68.7656C65.4602 68.348 65.5298 67.9303 65.6016 67.5Z" fill="#D3DA77"/>
<path d="M97.6641 43.875C97.8033 44.0142 97.9425 44.1534 98.0859 44.2969C98.1555 44.2969 98.2252 44.2969 98.2969 44.2969C98.2969 44.7841 98.2969 45.2714 98.2969 45.7734C97.5312 45.7734 96.7655 45.7734 95.9766 45.7734C96.0425 45.0615 96.0425 45.0615 96.1875 44.2969C96.8203 43.875 96.8203 43.875 97.6641 43.875Z" fill="#E4E8AA"/>
<path d="M62.2266 70.0312C63.3403 70.0312 64.4541 70.0312 65.6016 70.0312C65.6016 70.3793 65.6016 70.7273 65.6016 71.0859C65.3927 71.2252 65.1839 71.3644 64.9688 71.5078C65.108 71.1598 65.2472 70.8117 65.3906 70.4531C65.1122 70.4531 64.8338 70.4531 64.5469 70.4531C64.4077 70.7316 64.2684 71.01 64.125 71.2969C63.4131 71.3232 63.4131 71.3232 62.6484 71.2969C62.5092 71.1577 62.37 71.0184 62.2266 70.875C62.2266 70.5966 62.2266 70.3181 62.2266 70.0312Z" fill="#F8F9EB"/>
<path d="M36.4922 68.5547C37.0459 68.6338 37.0459 68.6338 37.5469 68.7656C37.7842 70.1631 37.7842 70.1631 37.5469 70.875C37.0596 70.8054 36.5724 70.7358 36.0703 70.6641C36.0291 69.3869 36.0291 69.3869 36.0703 68.9766C36.2095 68.8373 36.3488 68.6981 36.4922 68.5547Z" fill="#F1F3D3"/>
<path d="M51.6796 67.2891C51.7493 67.2891 51.8189 67.2891 51.8906 67.2891C51.9137 67.4748 51.9368 67.6605 51.9606 67.8518C51.9941 68.0968 52.0275 68.3418 52.062 68.5942C52.0938 68.8365 52.1256 69.0788 52.1584 69.3284C52.3794 70.3365 52.8173 71.0304 53.5781 71.7188C52.1543 71.5342 52.1543 71.5342 51.6796 71.2969C51.2194 70.2742 51.121 69.2388 51.2578 68.1328C51.472 67.6533 51.472 67.6533 51.6796 67.2891Z" fill="#B5C017"/>
<path d="M86.4844 67.2891C87.104 67.6714 87.104 67.6714 87.5391 68.1328C87.5391 68.3416 87.5391 68.5505 87.5391 68.7656C87.191 68.7656 86.843 68.7656 86.4844 68.7656C86.4148 68.6264 86.3452 68.4872 86.2734 68.3437C85.6344 68.205 85.6344 68.205 85.0078 68.1328C85.0078 68.4112 85.0078 68.6897 85.0078 68.9766C84.8686 68.9766 84.7294 68.9766 84.5859 68.9766C84.4467 68.6285 84.3075 68.2805 84.1641 67.9219C84.905 67.2106 85.4798 67.1657 86.4844 67.2891Z" fill="#BFC837"/>
<path d="M70.875 67.7109C71.3971 67.8154 71.3971 67.8154 71.9297 67.9219C71.9297 69.2445 71.9297 70.567 71.9297 71.9297C71.7209 71.9297 71.512 71.9297 71.2969 71.9297C71.2841 71.6782 71.2713 71.4267 71.2581 71.1675C71.2403 70.8371 71.2225 70.5067 71.2046 70.1763C71.1963 70.0105 71.188 69.8448 71.1795 69.6741C71.1706 69.5143 71.1618 69.3546 71.1527 69.19C71.1411 68.9696 71.1411 68.9696 71.1292 68.7448C71.0953 68.297 71.0953 68.297 70.875 67.7109Z" fill="#B9C424"/>
<path d="M41.5546 68.5547C42.1083 68.6338 42.1083 68.6338 42.6093 68.7656C42.6299 70.0634 42.6299 70.0634 42.6093 70.4531C42.3984 70.6641 42.3984 70.6641 41.8579 70.6772C41.6882 70.6729 41.5185 70.6685 41.3437 70.6641C41.0523 70.0813 41.0925 69.6205 41.1328 68.9766C41.272 68.8373 41.4112 68.6981 41.5546 68.5547Z" fill="#F2F4D6"/>
<path d="M81.2109 69.8203C81.2505 70.3213 81.2505 70.3213 81.2109 70.875C80.4422 71.3875 80.006 71.331 79.1016 71.2969C79.1016 70.9488 79.1016 70.6008 79.1016 70.2422C79.8192 69.8006 80.3783 69.7825 81.2109 69.8203Z" fill="#F5F7E2"/>
<path d="M57.375 66.0234C57.5142 66.0234 57.6534 66.0234 57.7969 66.0234C57.7969 66.7195 57.7969 67.4156 57.7969 68.1328C57.9361 68.1328 58.0753 68.1328 58.2188 68.1328C58.1491 68.3416 58.0795 68.5505 58.0078 68.7656C57.9602 69.2703 57.9216 69.7759 57.8892 70.2817C57.8715 70.5501 57.8538 70.8185 57.8356 71.095C57.8228 71.3008 57.81 71.5067 57.7969 71.7188C57.6577 71.7188 57.5184 71.7188 57.375 71.7188C57.375 69.8393 57.375 67.9598 57.375 66.0234Z" fill="#B0BC08"/>
<path d="M99.1406 38.6016C99.2798 38.6016 99.4191 38.6016 99.5625 38.6016C99.5625 39.6457 99.5625 40.6898 99.5625 41.7656C98.6576 41.7656 97.7527 41.7656 96.8203 41.7656C97.1826 40.8598 97.3292 40.54 97.9805 39.9067C98.1088 39.7792 98.2372 39.6517 98.3694 39.5203C98.7188 39.2344 98.7188 39.2344 99.1406 39.2344C98.7924 40.1398 98.1413 40.6855 97.4531 41.3438C98.0796 41.4134 98.7061 41.483 99.3516 41.5547C99.282 40.5802 99.2123 39.6056 99.1406 38.6016Z" fill="#C5CD49"/>
<path d="M93.8672 43.4531C95.7466 43.4531 97.6261 43.4531 99.5625 43.4531C99.5625 43.8708 99.5625 44.2884 99.5625 44.7188C99.4233 44.7188 99.2841 44.7188 99.1406 44.7188C99.071 44.9276 99.0014 45.1364 98.9297 45.3516C98.7905 45.3516 98.6512 45.3516 98.5078 45.3516C98.4274 44.9315 98.3574 44.5093 98.2969 44.0859C98.3665 44.0163 98.4361 43.9467 98.5078 43.875C96.9764 43.8054 95.445 43.7358 93.8672 43.6641C93.8672 43.5945 93.8672 43.5248 93.8672 43.4531Z" fill="#CED565"/>
<path d="M81.2109 67.5C81.3502 67.5 81.4894 67.5 81.6328 67.5C81.9691 68.1725 81.8652 68.8983 81.8569 69.6357C81.856 69.7948 81.855 69.9539 81.854 70.1178C81.8516 70.5108 81.8478 70.9038 81.8438 71.2969C82.0526 71.2969 82.2614 71.2969 82.4766 71.2969C82.4766 71.5057 82.4766 71.7145 82.4766 71.9297C81.4155 71.8189 80.3632 71.6964 79.3125 71.5078C79.3125 71.4382 79.3125 71.3686 79.3125 71.2969C79.5848 71.2259 79.8573 71.1558 80.1299 71.0859C80.2816 71.0468 80.4333 71.0076 80.5897 70.9673C81 70.875 81 70.875 81.4219 70.875C81.4276 70.4312 81.4317 69.9873 81.4351 69.5435C81.4375 69.2963 81.44 69.0491 81.4425 68.7945C81.4533 68.1264 81.4533 68.1264 81.2109 67.5Z" fill="#BAC428"/>
<path d="M94.2891 43.875C94.8459 43.875 95.4028 43.875 95.9766 43.875C96.0462 44.0142 96.1158 44.1534 96.1875 44.2969C95.9897 44.8506 95.9897 44.8506 95.7656 45.3516C95.5568 45.3516 95.348 45.3516 95.1328 45.3516C95.1328 45.4908 95.1328 45.63 95.1328 45.7734C94.924 45.7038 94.7152 45.6342 94.5 45.5625C94.4304 45.0056 94.3608 44.4488 94.2891 43.875Z" fill="#D9DE87"/>
<path d="M63.2549 68.0933C63.9141 68.1328 63.9141 68.1328 64.5469 68.5547C64.5469 68.7635 64.5469 68.9723 64.5469 69.1875C63.7812 69.1875 63.0155 69.1875 62.2266 69.1875C62.4876 68.1433 62.4876 68.1433 63.2549 68.0933Z" fill="#F8F9E9"/>
<path d="M83.5312 65.8125C83.6009 65.8125 83.6705 65.8125 83.7422 65.8125C83.7422 67.3439 83.7422 68.8753 83.7422 70.4531C84.0902 70.4531 84.4383 70.4531 84.7969 70.4531C84.8665 70.7316 84.9361 71.01 85.0078 71.2969C84.8686 71.2273 84.7294 71.1577 84.5859 71.0859C84.5859 70.9467 84.5859 70.8075 84.5859 70.6641C84.4467 70.6641 84.3075 70.6641 84.1641 70.6641C84.3033 71.0121 84.4425 71.3602 84.5859 71.7188C84.3771 71.6491 84.1683 71.5795 83.9531 71.5078C83.8139 71.647 83.6747 71.7863 83.5312 71.9297C83.5312 69.911 83.5312 67.8923 83.5312 65.8125Z" fill="#EAEDBF"/>
<path d="M65.8125 67.7109C65.9517 67.7109 66.0909 67.7109 66.2344 67.7109C66.2344 67.8502 66.2344 67.9894 66.2344 68.1328C66.3736 68.1328 66.5128 68.1328 66.6562 68.1328C66.6239 68.2427 66.5915 68.3525 66.5582 68.4657C66.4158 69.11 66.3727 69.7423 66.3267 70.4004C66.309 70.6473 66.2913 70.8942 66.2731 71.1486C66.2603 71.3367 66.2475 71.5249 66.2344 71.7188C66.0952 71.7188 65.9559 71.7188 65.8125 71.7188C65.8125 70.3962 65.8125 69.0736 65.8125 67.7109Z" fill="#B1BD0B"/>
<path d="M85.0078 68.1328C85.4255 68.1328 85.8431 68.1328 86.2734 68.1328C86.343 68.3416 86.4127 68.5505 86.4844 68.7656C86.8324 68.7656 87.1805 68.7656 87.5391 68.7656C87.2606 68.8352 86.9822 68.9048 86.6953 68.9766C86.6953 69.1158 86.6953 69.255 86.6953 69.3984C86.1384 69.3288 85.5816 69.2592 85.0078 69.1875C85.0078 68.8395 85.0078 68.4914 85.0078 68.1328Z" fill="#F5F6E0"/>
<path d="M56.9531 65.8125C57.0227 65.8125 57.0923 65.8125 57.1641 65.8125C57.1641 67.8312 57.1641 69.8498 57.1641 71.9297C57.0945 71.9297 57.0248 71.9297 56.9531 71.9297C56.8835 71.5816 56.8139 71.2336 56.7422 70.875C56.603 70.875 56.4638 70.875 56.3203 70.875C56.3899 70.4573 56.4595 70.0397 56.5312 69.6094C56.3224 69.5398 56.1136 69.4702 55.8984 69.3984C56.1769 69.3984 56.4553 69.3984 56.7422 69.3984C56.8118 68.2151 56.8814 67.0317 56.9531 65.8125Z" fill="#EDEFC6"/>
<path d="M64.5469 70.4531C64.8253 70.4531 65.1037 70.4531 65.3906 70.4531C65.127 71.2237 65.0382 71.4615 64.3359 71.9297C63.8127 71.9709 63.8127 71.9709 63.2417 71.9561C63.0516 71.9522 62.8616 71.9484 62.6657 71.9445C62.5208 71.9396 62.3759 71.9347 62.2266 71.9297C62.157 71.7905 62.0873 71.6513 62.0156 71.5078C62.1244 71.4817 62.2332 71.4556 62.3452 71.4287C62.5149 71.3852 62.6846 71.3417 62.8594 71.2969C63.1161 71.2316 63.3727 71.1664 63.6372 71.0991C63.9831 70.9882 63.9831 70.9882 64.3359 70.875C64.4055 70.7358 64.4752 70.5966 64.5469 70.4531Z" fill="#C1CA3D"/>
<path d="M94.2891 43.6641C95.9597 43.6641 97.6303 43.6641 99.3516 43.6641C98.9339 43.8729 98.9339 43.8729 98.5078 44.0859C98.299 44.2252 98.0902 44.3644 97.875 44.5078C97.8054 44.299 97.7358 44.0902 97.6641 43.875C97.4422 43.949 97.2203 44.0229 96.9917 44.0991C95.8308 44.3846 95.348 44.1935 94.2891 43.6641Z" fill="#B4BF13"/>
<path d="M81 67.2891C81 67.3587 81 67.4283 81 67.5C80.5127 67.5696 80.0255 67.6392 79.5234 67.7109C80.1499 67.8154 80.1499 67.8154 80.7891 67.9219C80.7891 67.9915 80.7891 68.0611 80.7891 68.1328C80.5498 68.1937 80.3105 68.2546 80.064 68.3174C79.816 68.3957 79.568 68.474 79.3125 68.5547C79.2429 68.6939 79.1733 68.8331 79.1016 68.9766C78.8927 68.9766 78.6839 68.9766 78.4688 68.9766C78.5416 68.4372 78.6271 68.0115 78.9038 67.5396C79.5752 67.128 80.2247 67.2509 81 67.2891Z" fill="#C6CF4E"/>
<path d="M84.3751 68.1328C84.4447 68.4113 84.5143 68.6897 84.586 68.9766C84.7054 69.0021 84.8247 69.0277 84.9477 69.054C85.1024 69.0894 85.2572 69.1247 85.4166 69.1611C85.5707 69.1954 85.7249 69.2297 85.8838 69.265C86.2735 69.3984 86.2735 69.3984 86.4844 69.8203C86.177 69.8374 85.8693 69.8497 85.5616 69.8599C85.3903 69.8672 85.219 69.8745 85.0425 69.8821C84.8918 69.8617 84.7412 69.8413 84.586 69.8203C84.1641 69.1875 84.1641 69.1875 84.2432 68.6206C84.2867 68.4596 84.3302 68.2987 84.3751 68.1328Z" fill="#B5C019"/>
<path d="M75.9375 67.5C77.2976 67.6283 77.2976 67.6283 77.8228 68.001C78.0469 68.3438 78.0469 68.3438 78.0469 68.9766C77.7684 68.9766 77.49 68.9766 77.2031 68.9766C76.9824 68.7029 76.7713 68.4212 76.5703 68.1328C76.3615 68.0632 76.1527 67.9936 75.9375 67.9219C75.9375 67.7827 75.9375 67.6434 75.9375 67.5Z" fill="#C3CB42"/>
<path d="M54.6328 71.2969C55.0283 71.6133 55.0283 71.6133 55.2656 71.9297C54.9344 72.2609 54.6027 72.1764 54.145 72.1802C53.9805 72.1832 53.816 72.1862 53.6465 72.1892C53.1134 72.1364 52.7729 71.9853 52.3125 71.7187C53.1102 71.3199 53.7479 71.2231 54.6328 71.2969Z" fill="#C7CF4F"/>
<path d="M78.6796 70.0312C78.7492 70.0312 78.8189 70.0312 78.8906 70.0312C79.0298 70.4489 79.169 70.8666 79.3125 71.2969C79.9389 71.4013 79.9389 71.4013 80.5781 71.5078C80.5781 71.647 80.5781 71.7862 80.5781 71.9297C79.9516 71.9297 79.3251 71.9297 78.6796 71.9297C78.3914 71.3533 78.4416 70.8788 78.4687 70.2422C78.5383 70.1726 78.6079 70.103 78.6796 70.0312Z" fill="#B4BF15"/>
<path d="M77.2031 70.2422C77.4816 70.2422 77.76 70.2422 78.0469 70.2422C77.9176 70.8669 77.7824 71.1662 77.4141 71.7188C76.7876 71.6491 76.1611 71.5795 75.5156 71.5078C75.5156 71.4382 75.5156 71.3686 75.5156 71.2969C75.7549 71.2403 75.9942 71.1838 76.2407 71.1255C76.4887 71.0428 76.7367 70.9602 76.9922 70.875C77.0618 70.6662 77.1314 70.4573 77.2031 70.2422Z" fill="#BFC938"/>
<path d="M80.7891 69.3984C80.6629 69.4593 80.5367 69.5202 80.4067 69.583C79.6238 69.9856 79.2384 70.2833 78.8906 71.0859C78.821 70.8075 78.7514 70.5291 78.6797 70.2422C78.6101 70.5902 78.5405 70.9383 78.4688 71.2969C78.3991 71.2969 78.3295 71.2969 78.2578 71.2969C78.1919 70.7036 78.1919 70.7036 78.2578 70.0312C79.0789 69.3877 79.7799 69.0853 80.7891 69.3984Z" fill="#C5CE4A"/>
<path d="M70.2307 67.2479C70.6564 67.2616 71.0821 67.2753 71.5078 67.2891C71.5774 67.4283 71.647 67.5675 71.7188 67.7109C71.4403 67.7109 71.1619 67.7109 70.875 67.7109C70.875 67.8502 70.875 67.9894 70.875 68.1328C70.4573 68.2024 70.0397 68.272 69.6094 68.3438C69.5398 68.1349 69.4702 67.9261 69.3984 67.7109C69.8203 67.2891 69.8203 67.2891 70.2307 67.2479Z" fill="#C8D155"/>
<path d="M23.4141 68.3438C23.7621 68.4134 24.1102 68.483 24.4688 68.5547C24.3991 68.7635 24.3295 68.9723 24.2578 69.1875C22.7001 69.4731 22.7001 69.4731 22.043 69.0952C21.9386 68.9865 21.8341 68.8777 21.7266 68.7656C22.2834 68.7656 22.8403 68.7656 23.4141 68.7656C23.4141 68.6264 23.4141 68.4872 23.4141 68.3438Z" fill="#E7EBB5"/>
<path d="M68.5547 67.2891C68.3459 67.3587 68.137 67.4283 67.9219 67.5C67.9915 67.7088 68.0611 67.9177 68.1328 68.1328C67.6455 68.272 67.1583 68.4112 66.6562 68.5547C66.6562 68.4155 66.6562 68.2762 66.6562 68.1328C66.517 68.1328 66.3778 68.1328 66.2344 68.1328C66.2344 67.9936 66.2344 67.8544 66.2344 67.7109C66.0952 67.6413 65.9559 67.5717 65.8125 67.5C66.0213 67.5 66.2302 67.5 66.4453 67.5C66.4453 67.6392 66.4453 67.7784 66.4453 67.9219C66.5584 67.8175 66.6715 67.713 66.7881 67.6055C67.4143 67.21 67.8276 67.2395 68.5547 67.2891Z" fill="#C3CC43"/>
<path d="M61.8047 70.0312C61.9178 70.1966 62.0309 70.3619 62.1475 70.5322C62.7122 71.1564 63.1092 71.3066 63.9141 71.5078C63.9141 71.5774 63.9141 71.647 63.9141 71.7188C63.2417 71.7847 63.2417 71.7847 62.4375 71.7188C61.8179 71.1914 61.8179 71.1914 61.3828 70.6641C61.5938 70.2422 61.5938 70.2422 61.8047 70.0312Z" fill="#B5C016"/>
<path d="M70.875 67.7109C71.0838 67.7109 71.2927 67.7109 71.5078 67.7109C71.8569 68.4091 71.74 69.1857 71.7319 69.9521C71.731 70.1213 71.73 70.2904 71.729 70.4647C71.7266 70.8827 71.7228 71.3007 71.7187 71.7188C71.6491 71.7188 71.5795 71.7188 71.5078 71.7188C71.4923 71.4173 71.4923 71.4173 71.4765 71.1098C71.4607 70.8453 71.445 70.5807 71.4287 70.3081C71.414 70.0463 71.3993 69.7844 71.3842 69.5146C71.3044 68.8303 71.1661 68.3299 70.875 67.7109Z" fill="#AFBA04"/>
<path d="M76.7812 67.2891C76.5028 67.3587 76.2244 67.4283 75.9375 67.5C75.9375 67.6392 75.9375 67.7784 75.9375 67.9219C76.1463 67.9915 76.3552 68.0611 76.5703 68.1328C76.083 68.272 75.5958 68.4113 75.0938 68.5547C75.0938 68.3459 75.0938 68.137 75.0938 67.9219C74.9545 67.8523 74.8153 67.7827 74.6719 67.7109C75.4406 67.1985 75.8768 67.2549 76.7812 67.2891Z" fill="#CED565"/>
<path d="M39.0234 47.8828C39.1627 47.9524 39.3019 48.022 39.4453 48.0938C38.7492 48.7898 38.0531 49.4859 37.3359 50.2031C37.3359 49.2913 37.7893 48.962 38.3906 48.3047C38.5995 48.1655 38.8083 48.0263 39.0234 47.8828Z" fill="#C3CC45"/>
<path d="M57.7969 65.8125C57.8665 65.8125 57.9361 65.8125 58.0078 65.8125C58.0774 66.3694 58.147 66.9262 58.2188 67.5C58.706 67.6392 59.1933 67.7784 59.6953 67.9219C59.6953 67.9915 59.6953 68.0611 59.6953 68.1328C58.2715 68.3701 58.2715 68.3701 57.7969 68.1328C57.7969 67.3671 57.7969 66.6014 57.7969 65.8125Z" fill="#CAD25A"/>
<path d="M84.5859 67.5C84.7252 67.5 84.8644 67.5 85.0078 67.5C85.0078 67.6392 85.0078 67.7784 85.0078 67.9219C85.4255 67.9219 85.8431 67.9219 86.2734 67.9219C86.2734 67.9915 86.2734 68.0611 86.2734 68.1328C85.8558 68.1328 85.4381 68.1328 85.0078 68.1328C85.0078 68.4112 85.0078 68.6897 85.0078 68.9766C84.8686 68.9766 84.7294 68.9766 84.5859 68.9766C84.4467 68.6285 84.3075 68.2805 84.1641 67.9219C84.3033 67.7827 84.4425 67.6434 84.5859 67.5Z" fill="#C4CC45"/>
<path d="M56.7422 48.5156C56.8814 48.5852 57.0206 48.6548 57.1641 48.7266C56.9282 49.0091 56.6906 49.29 56.4521 49.5703C56.32 49.7269 56.1879 49.8836 56.0517 50.0449C55.8714 50.2276 55.8714 50.2276 55.6875 50.4141C55.5483 50.4141 55.4091 50.4141 55.2656 50.4141C55.5936 49.6089 56.117 49.1079 56.7422 48.5156Z" fill="#C2CB40"/>
<path d="M98.2969 44.0859C98.7145 44.0859 99.1322 44.0859 99.5625 44.0859C99.5625 44.2948 99.5625 44.5036 99.5625 44.7188C99.4233 44.7188 99.2841 44.7188 99.1406 44.7188C99.071 44.9276 99.0014 45.1364 98.9297 45.3516C98.7905 45.3516 98.6513 45.3516 98.5078 45.3516C98.4382 44.9339 98.3686 44.5162 98.2969 44.0859Z" fill="#E4E8AA"/>
<path d="M96.8203 43.875C97.0988 43.875 97.3772 43.875 97.6641 43.875C97.875 44.5078 97.875 44.5078 97.6772 44.9692C97.5663 45.1585 97.5663 45.1585 97.4531 45.3516C97.3139 45.3516 97.1747 45.3516 97.0312 45.3516C97.0312 45.0035 97.0312 44.6555 97.0312 44.2969C96.892 44.2273 96.7528 44.1577 96.6094 44.0859C96.679 44.0163 96.7486 43.9467 96.8203 43.875Z" fill="#D6DC81"/>
<path d="M23.4141 70.0312C23.7621 70.0312 24.1102 70.0312 24.4688 70.0312C24.3991 70.3097 24.3295 70.5881 24.2578 70.875C23.9098 70.875 23.5617 70.875 23.2031 70.875C23.2727 70.5966 23.3423 70.3181 23.4141 70.0312Z" fill="#E9ECBC"/>
<path d="M38.1797 54.8438C38.3189 54.9134 38.4581 54.983 38.6016 55.0547C38.0447 55.6116 37.4878 56.1684 36.9141 56.7422C36.8445 56.5334 36.7748 56.3245 36.7031 56.1094C37.1904 55.6917 37.6777 55.2741 38.1797 54.8438Z" fill="#BFC837"/>
<path d="M84.1641 70.6641C84.3033 70.6641 84.4425 70.6641 84.5859 70.6641C84.6729 70.7641 84.76 70.8642 84.8496 70.9673C85.3575 71.4208 85.8208 71.4341 86.4844 71.5078C86.4844 71.5774 86.4844 71.647 86.4844 71.7188C86.1768 71.7301 85.8692 71.7383 85.5615 71.7451C85.3902 71.75 85.2189 71.7549 85.0424 71.7599C84.5859 71.7188 84.5859 71.7188 84.1641 71.2969C84.1641 71.088 84.1641 70.8792 84.1641 70.6641Z" fill="#B1BD0B"/>
<path d="M36.4922 68.5547C36.9404 68.6338 36.9404 68.6338 37.336 68.7656C37.1967 68.8439 37.0575 68.9222 36.9141 69.0029C36.4177 69.3792 36.4177 69.3792 36.4395 70.0708C36.4569 70.2666 36.4743 70.4624 36.4922 70.6641C36.353 70.6641 36.2138 70.6641 36.0703 70.6641C36.0291 69.3869 36.0291 69.3869 36.0703 68.9766C36.2095 68.8373 36.3488 68.6981 36.4922 68.5547Z" fill="#DDE295"/>
<path d="M58.6406 67.2891C59.0583 67.2891 59.4759 67.2891 59.9062 67.2891C59.9759 67.4283 60.0455 67.5675 60.1172 67.7109C59.5458 67.9966 59.0605 67.9356 58.4297 67.9219C58.4993 67.713 58.5689 67.5042 58.6406 67.2891Z" fill="#BEC732"/>
<path d="M80.7891 70.875C80.8587 71.0142 80.9283 71.1534 81 71.2969C81.1392 71.2969 81.2784 71.2969 81.4219 71.2969C81.3523 71.5057 81.2827 71.7145 81.2109 71.9297C80.2712 71.7209 80.2712 71.7209 79.3125 71.5078C79.3125 71.4382 79.3125 71.3686 79.3125 71.2969C79.7998 71.1577 80.287 71.0184 80.7891 70.875Z" fill="#C8D053"/>
<path d="M52.7344 66.0234C52.9432 66.1627 53.152 66.3019 53.3672 66.4453C52.9495 66.7237 52.5319 67.0022 52.1016 67.2891C52.032 67.1498 51.9623 67.0106 51.8906 66.8672C51.9602 66.6584 52.0298 66.4495 52.1016 66.2344C52.3104 66.1648 52.5192 66.0952 52.7344 66.0234Z" fill="#B4BF13"/>
<path d="M53.9341 65.5752C54.1898 65.5809 54.1898 65.5809 54.4507 65.5867C54.6453 65.5941 54.6453 65.5941 54.8438 65.6016C54.8438 65.6712 54.8438 65.7408 54.8438 65.8125C54.5014 65.8889 54.1585 65.9632 53.8154 66.0366C53.6245 66.0782 53.4337 66.1198 53.237 66.1627C52.7344 66.2344 52.7344 66.2344 52.3125 66.0234C52.9883 65.5729 53.1603 65.5528 53.9341 65.5752Z" fill="#CBD35D"/>
<path d="M96.1875 44.2969C96.3267 44.2969 96.4659 44.2969 96.6094 44.2969C96.679 44.7841 96.7486 45.2714 96.8203 45.7734C96.5419 45.7734 96.2634 45.7734 95.9766 45.7734C96.0462 45.2862 96.1158 44.7989 96.1875 44.2969Z" fill="#D4DA78"/>
<path d="M64.125 67.9219C64.4034 67.9915 64.6819 68.0611 64.9688 68.1328C65.0384 68.4809 65.108 68.8289 65.1797 69.1875C64.9709 69.2571 64.762 69.3267 64.5469 69.3984C64.4077 68.9112 64.2684 68.4239 64.125 67.9219Z" fill="#B7C21F"/>
<path d="M75.9375 67.5C76.4248 67.5696 76.912 67.6392 77.4141 67.7109C77.3445 67.9198 77.2748 68.1286 77.2031 68.3438C76.7855 68.2045 76.3678 68.0653 75.9375 67.9219C75.9375 67.7827 75.9375 67.6434 75.9375 67.5Z" fill="#B3BE10"/>
<path d="M59.6953 67.7109C59.9738 67.7805 60.2522 67.8502 60.5391 67.9219C60.5391 68.2699 60.5391 68.618 60.5391 68.9766C60.1172 68.6997 60.1172 68.6997 59.6953 68.3438C59.6953 68.1349 59.6953 67.9261 59.6953 67.7109Z" fill="#B3BF13"/>
<path d="M95.1328 43.875C95.4809 43.9446 95.8289 44.0142 96.1875 44.0859C95.9787 44.3992 95.9787 44.3992 95.7656 44.7188C95.7656 44.5795 95.7656 44.4403 95.7656 44.2969C95.6264 44.2969 95.4872 44.2969 95.3438 44.2969C95.3438 44.5057 95.3438 44.7145 95.3438 44.9297C95.2045 44.9297 95.0653 44.9297 94.9219 44.9297C94.9915 44.5816 95.0611 44.2336 95.1328 43.875Z" fill="#E8EBB7"/>
</g>
<defs>
<clipPath id="clip0_104_225">
<rect width="108" height="108" fill="white"/>
</clipPath>
</defs>
</svg>
